<svg width="151" height="151" viewBox="0 0 151 151" fill="none" xmlns="http://www.w3.org/2000/svg">
<path d="M129.1 21.7C117.7 10.3 105.6 17.7 98 25.3L26.3 97C18.7 104.6 10.8 116.1 22.7 128.1C34.7 140.1 46.2 132.1 53.8 124.5L125.5 52.8C133.1 45.2 140.5 33.1 129.1 21.7ZM60.6 18.8L75.8 34L91.3 18.5C92.3 17.4 93.4 16.5 94.5 15.6C92.9 7.40001 88.2 0 75.8 0C63.4 0 58.7 7.40001 57.1 15.6C58.3 16.6 59.4 17.6 60.6 18.8ZM91.2 131.7L75.7 116.2L60.5 131.4C59.3 132.6 58.2 133.6 57.1 134.6C58.8 142.9 63.8 150.6 75.7 150.6C87.7 150.6 92.6 142.9 94.3 134.6C93.3 133.6 92.3 132.7 91.2 131.7ZM54.1 55.6H24.8C14.1 55.6 0.300049 59 0.300049 75C0.300049 87 8.00005 91.9 16.3 93.6C17.4 92.6 54.1 55.6 54.1 55.6ZM135.2 56.4C134.3 57.5 97.4 94.5 97.4 94.5H126.3C137 94.5 150.8 92 150.8 75.1C150.8 62.7 143.4 58 135.2 56.4ZM63.7 46L68.9 40.8L53.7 25.6C46.1 18 34.6 10.1 22.6 22C13.8 30.8 15.8 39.3 20.4 46.2C21.9 46.1 63.7 46 63.7 46ZM87.8 104.1L82.6 109.3L98.1 124.8C105.7 132.4 117.8 139.7 129.2 128.4C137.7 119.9 135.7 111 131 103.9C129.5 104 87.8 104.1 87.8 104.1Z" fill="#FC5656"/>
</svg>
