<svg width="320" height="52" viewBox="0 0 320 52" fill="none" xmlns="http://www.w3.org/2000/svg">
<path d="M0 0H320V51.5H160.5H0V0Z" fill="#303030"/>
<path d="M129.25 14.925C131.067 14.925 132.492 15.3 133.525 16.05C134.575 16.7833 135.1 17.9333 135.1 19.5C135.1 20.45 134.883 21.275 134.45 21.975C134.017 22.675 133.408 23.225 132.625 23.625C131.858 24.025 130.95 24.25 129.9 24.3L129.55 23.05C130.767 23.0833 131.858 23.3 132.825 23.7C133.792 24.1 134.558 24.6583 135.125 25.375C135.692 26.0917 135.975 26.9417 135.975 27.925C135.975 28.825 135.808 29.6 135.475 30.25C135.142 30.8833 134.692 31.4083 134.125 31.825C133.558 32.225 132.917 32.525 132.2 32.725C131.483 32.9083 130.742 33 129.975 33H124.6V14.925H129.25ZM129.75 22.85C130.75 22.85 131.475 22.575 131.925 22.025C132.375 21.4583 132.6 20.775 132.6 19.975C132.6 19.025 132.308 18.3333 131.725 17.9C131.142 17.4667 130.358 17.25 129.375 17.25H127.025V22.85H129.75ZM129.85 30.75C130.517 30.75 131.125 30.65 131.675 30.45C132.242 30.25 132.683 29.9417 133 29.525C133.333 29.1083 133.5 28.5833 133.5 27.95C133.5 27.25 133.308 26.7 132.925 26.3C132.558 25.9 132.083 25.6167 131.5 25.45C130.917 25.2667 130.317 25.175 129.7 25.175H127.025V30.75H129.85ZM137.863 33L145.763 14.175H145.913L153.788 33H151.013L145.113 17.975L146.838 16.85L140.238 33H137.863ZM142.488 26.15H149.213L150.013 28.25H141.788L142.488 26.15ZM169.491 31.65C169.191 31.85 168.783 32.075 168.266 32.325C167.75 32.575 167.141 32.7833 166.441 32.95C165.758 33.1167 165.008 33.2 164.191 33.2C162.791 33.1833 161.525 32.9333 160.391 32.45C159.275 31.9667 158.325 31.3083 157.541 30.475C156.758 29.6417 156.15 28.6833 155.716 27.6C155.3 26.5 155.091 25.3333 155.091 24.1C155.091 22.75 155.308 21.5083 155.741 20.375C156.191 19.225 156.816 18.2333 157.616 17.4C158.416 16.55 159.358 15.8917 160.441 15.425C161.541 14.9583 162.741 14.725 164.041 14.725C165.125 14.725 166.108 14.875 166.991 15.175C167.875 15.4583 168.633 15.8 169.266 16.2L168.291 18.45C167.791 18.1167 167.183 17.8 166.466 17.5C165.766 17.2 164.983 17.05 164.116 17.05C163.233 17.05 162.4 17.225 161.616 17.575C160.833 17.925 160.141 18.4167 159.541 19.05C158.941 19.6833 158.466 20.425 158.116 21.275C157.783 22.1083 157.616 23.0083 157.616 23.975C157.616 24.9583 157.766 25.875 158.066 26.725C158.383 27.5583 158.825 28.2833 159.391 28.9C159.975 29.5167 160.675 30 161.491 30.35C162.308 30.7 163.225 30.875 164.241 30.875C165.158 30.875 165.975 30.7333 166.691 30.45C167.408 30.1667 168 29.85 168.466 29.5L169.491 31.65ZM176.65 22.6H178.775V26.15H182.25V28.175H178.775V31.725H176.65V28.175H173.15V26.15H176.65V22.6ZM186.045 16.55H190.345V33H187.92V18.875H186.045V16.55Z" fill="#EEEEEE"/>
</svg>
