<svg width="197" height="200" viewBox="0 0 197 200" fill="none" xmlns="http://www.w3.org/2000/svg">
<path d="M0 0H197L105 93L0 200V0Z" fill="#302F2F"/>
<path d="M30.73 31.249C33.4187 31.249 35.5277 31.804 37.057 32.914C38.611 33.9993 39.388 35.7013 39.388 38.02C39.388 39.426 39.0673 40.647 38.426 41.683C37.7847 42.719 36.8843 43.533 35.725 44.125C34.5903 44.717 33.246 45.05 31.692 45.124L31.174 43.274C32.9747 43.3233 34.5903 43.644 36.021 44.236C37.4517 44.828 38.5863 45.6543 39.425 46.715C40.2637 47.7757 40.683 49.0337 40.683 50.489C40.683 51.821 40.4363 52.968 39.943 53.93C39.4497 54.8673 38.7837 55.6443 37.945 56.261C37.1063 56.853 36.1567 57.297 35.096 57.593C34.0353 57.8643 32.9377 58 31.803 58H23.848V31.249H30.73ZM31.47 42.978C32.95 42.978 34.023 42.571 34.689 41.757C35.355 40.9183 35.688 39.907 35.688 38.723C35.688 37.317 35.2563 36.2933 34.393 35.652C33.5297 35.0107 32.3703 34.69 30.915 34.69H27.437V42.978H31.47ZM31.618 54.67C32.6047 54.67 33.505 54.522 34.319 54.226C35.1577 53.93 35.8113 53.4737 36.28 52.857C36.7733 52.2403 37.02 51.4633 37.02 50.526C37.02 49.49 36.7363 48.676 36.169 48.084C35.6263 47.492 34.9233 47.0727 34.06 46.826C33.1967 46.5547 32.3087 46.419 31.396 46.419H27.437V54.67H31.618ZM43.4779 58L55.1699 30.139H55.3919L67.0469 58H62.9399L54.2079 35.763L56.7609 34.098L46.9929 58H43.4779ZM50.3229 47.862H60.2759L61.4599 50.97H49.2869L50.3229 47.862ZM90.287 56.002C89.843 56.298 89.2387 56.631 88.474 57.001C87.7093 57.371 86.809 57.6793 85.773 57.926C84.7617 58.1727 83.6517 58.296 82.443 58.296C80.371 58.2713 78.4963 57.9013 76.819 57.186C75.1663 56.4707 73.7603 55.4963 72.601 54.263C71.4417 53.0297 70.5413 51.6113 69.9 50.008C69.2833 48.38 68.975 46.6533 68.975 44.828C68.975 42.83 69.2957 40.9923 69.937 39.315C70.603 37.613 71.528 36.1453 72.712 34.912C73.896 33.654 75.2897 32.6797 76.893 31.989C78.521 31.2983 80.297 30.953 82.221 30.953C83.8243 30.953 85.2797 31.175 86.587 31.619C87.8943 32.0383 89.0167 32.544 89.954 33.136L88.511 36.466C87.771 35.9727 86.8707 35.504 85.81 35.06C84.774 34.616 83.6147 34.394 82.332 34.394C81.0247 34.394 79.7913 34.653 78.632 35.171C77.4727 35.689 76.449 36.4167 75.561 37.354C74.673 38.2913 73.97 39.389 73.452 40.647C72.9587 41.8803 72.712 43.2123 72.712 44.643C72.712 46.0983 72.934 47.455 73.378 48.713C73.8467 49.9463 74.5003 51.0193 75.339 51.932C76.2023 52.8447 77.2383 53.56 78.447 54.078C79.6557 54.596 81.0123 54.855 82.517 54.855C83.8737 54.855 85.0823 54.6453 86.143 54.226C87.2037 53.8067 88.0793 53.338 88.77 52.82L90.287 56.002ZM100.881 42.608H104.026V47.862H109.169V50.859H104.026V56.113H100.881V50.859H95.7014V47.862H100.881V42.608ZM128.994 33.654L122.482 44.125L120.336 43.126C120.657 42.9533 121.015 42.83 121.409 42.756C121.804 42.682 122.199 42.645 122.593 42.645C123.506 42.5957 124.394 42.6943 125.257 42.941C126.121 43.1877 126.898 43.5947 127.588 44.162C128.279 44.7293 128.822 45.4817 129.216 46.419C129.636 47.3563 129.845 48.5157 129.845 49.897C129.845 51.6237 129.451 53.116 128.661 54.374C127.872 55.632 126.824 56.6063 125.516 57.297C124.234 57.963 122.803 58.296 121.224 58.296C120.04 58.296 118.856 58.0617 117.672 57.593C116.513 57.0997 115.551 56.4583 114.786 55.669L116.599 52.709C117.068 53.2517 117.709 53.745 118.523 54.189C119.362 54.633 120.225 54.855 121.113 54.855C122.051 54.855 122.889 54.6453 123.629 54.226C124.394 53.8067 124.998 53.2147 125.442 52.45C125.911 51.6607 126.145 50.748 126.145 49.712C126.145 48.2813 125.726 47.159 124.887 46.345C124.073 45.531 122.951 45.124 121.52 45.124C120.805 45.124 120.201 45.1857 119.707 45.309C119.214 45.4077 118.77 45.531 118.375 45.679L118.264 45.531L123.999 36.614L125.109 37.095H116.192V33.654H128.994Z" fill="#EEEEEE"/>
<path d="M73.9234 157.527L35.5416 150.152L66.6316 119.129L73.9234 157.527Z" fill="#AA430C"/>
</svg>
