<svg width="60" height="30" viewBox="0 0 60 30" fill="none" xmlns="http://www.w3.org/2000/svg">
<path d="M6.744 28V1.144H6.78L20.424 20.512L18.948 20.224L32.556 1.144H32.628V28H29.172V9.064L29.388 10.828L19.56 24.724H19.488L9.516 10.828L10.128 9.208V28H6.744ZM46.8033 1.972C49.4193 1.972 51.4713 2.512 52.9593 3.592C54.4713 4.648 55.2273 6.304 55.2273 8.56C55.2273 9.928 54.9153 11.116 54.2913 12.124C53.6673 13.132 52.7913 13.924 51.6633 14.5C50.5593 15.076 49.2513 15.4 47.7393 15.472L47.2353 13.672C48.9873 13.72 50.5593 14.032 51.9513 14.608C53.3433 15.184 54.4473 15.988 55.2633 17.02C56.0793 18.052 56.4873 19.276 56.4873 20.692C56.4873 21.988 56.2473 23.104 55.7673 24.04C55.2873 24.952 54.6393 25.708 53.8233 26.308C53.0073 26.884 52.0833 27.316 51.0513 27.604C50.0193 27.868 48.9513 28 47.8473 28H40.1073V1.972H46.8033ZM47.5233 13.384C48.9633 13.384 50.0073 12.988 50.6553 12.196C51.3033 11.38 51.6273 10.396 51.6273 9.244C51.6273 7.876 51.2073 6.88 50.3673 6.256C49.5273 5.632 48.3993 5.32 46.9833 5.32H43.5993V13.384H47.5233ZM47.6673 24.76C48.6273 24.76 49.5033 24.616 50.2953 24.328C51.1113 24.04 51.7473 23.596 52.2033 22.996C52.6833 22.396 52.9233 21.64 52.9233 20.728C52.9233 19.72 52.6473 18.928 52.0953 18.352C51.5673 17.776 50.8833 17.368 50.0433 17.128C49.2033 16.864 48.3393 16.732 47.4513 16.732H43.5993V24.76H47.6673Z" fill="#B84505"/>
<path d="M3.744 27V0.143998H3.78L17.424 19.512L15.948 19.224L29.556 0.143998H29.628V27H26.172V8.064L26.388 9.828L16.56 23.724H16.488L6.516 9.828L7.128 8.208V27H3.744ZM43.8033 0.971998C46.4193 0.971998 48.4713 1.512 49.9593 2.592C51.4713 3.648 52.2273 5.304 52.2273 7.56C52.2273 8.928 51.9153 10.116 51.2913 11.124C50.6673 12.132 49.7913 12.924 48.6633 13.5C47.5593 14.076 46.2513 14.4 44.7393 14.472L44.2353 12.672C45.9873 12.72 47.5593 13.032 48.9513 13.608C50.3433 14.184 51.4473 14.988 52.2633 16.02C53.0793 17.052 53.4873 18.276 53.4873 19.692C53.4873 20.988 53.2473 22.104 52.7673 23.04C52.2873 23.952 51.6393 24.708 50.8233 25.308C50.0073 25.884 49.0833 26.316 48.0513 26.604C47.0193 26.868 45.9513 27 44.8473 27H37.1073V0.971998H43.8033ZM44.5233 12.384C45.9633 12.384 47.0073 11.988 47.6553 11.196C48.3033 10.38 48.6273 9.396 48.6273 8.244C48.6273 6.876 48.2073 5.88 47.3673 5.256C46.5273 4.632 45.3993 4.32 43.9833 4.32H40.5993V12.384H44.5233ZM44.6673 23.76C45.6273 23.76 46.5033 23.616 47.2953 23.328C48.1113 23.04 48.7473 22.596 49.2033 21.996C49.6833 21.396 49.9233 20.64 49.9233 19.728C49.9233 18.72 49.6473 17.928 49.0953 17.352C48.5673 16.776 47.8833 16.368 47.0433 16.128C46.2033 15.864 45.3393 15.732 44.4513 15.732H40.5993V23.76H44.6673Z" fill="#EEEEEE"/>
</svg>
